ffmpeg started on 2025-06-27 at 12:04:01
Report written to "D:\Convert\FFMetrics\reports\ssim_report-6.txt"
Log level: 32
Command line:
ffmpeg -hide_banner -nostdin -i "G:\\\xc0\xed\xe8\xec\xe5\\[\xd2\xee\xef]\\\xcf\xee\xe2\xe5\xeb\xe8\xf2\xe5\xeb\xfc\\\xd2\xc2-2\\Special\\[Ohys-Raws] Overlord II - SP08 (BDRip-720p)_HEVC.mkv" -i "G:\\\xc0\xed\xe8\xec\xe5\\[\xd2\xee\xef]\\\xcf\xee\xe2\xe5\xeb\xe8\xf2\xe5\xeb\xfc\\\xd2\xc2-2\\Special\\[Ohys-Raws] Overlord II - SP08 (BDRip-720p).mkv" -lavfi "[0:v]settb=AVTB,setpts=PTS-STARTPTS,format=pix_fmts=yuv420p10,fps=24000/1001,scale=1280:720:flags=bicubic[main];[1:v]settb=AVTB,setpts=PTS-STARTPTS,format=pix_fmts=yuv420p,fps=24000/1001,scale=1280:720:flags=bicubic[ref];[main][ref]ssim=eof_action=endall:stats_file='D\\:/Convert/FFMetrics/logs/ssim_logfile-6.txt'" -f null -
Input #0, matroska,webm, from 'G:\Аниме\[Топ]\Повелитель\ТВ-2\Special\[Ohys-Raws] Overlord II - SP08 (BDRip-720p)_HEVC.mkv':
  Metadata:
    ENCODER         : Lavf61.7.100
  Duration: 00:01:32.10, start: -0.021000, bitrate: 491 kb/s
  Stream #0:0(jpn): Video: hevc (Main 10), yuv420p10le(tv, bt709, progressive), 1280x720 [SAR 1:1 DAR 16:9], 23.98 fps, 23.98 tbr, 1k tbn (default)
      Metadata:
        ENCODER         : Lavc61.19.100 libx265
        BPS             : 290802
        DURATION        : 00:01:32.091708333
        NUMBER_OF_FRAMES: 2208
        NUMBER_OF_BYTES : 3347537
        _STATISTICS_WRITING_APP: mkvpropedit v66.0.0 ('Josie') 64-bit
        _STATISTICS_WRITING_DATE_UTC: 2025-06-27 08:25:21
        _STATISTICS_TAGS: BPS DURATION NUMBER_OF_FRAMES NUMBER_OF_BYTES
  Stream #0:1(jpn): Audio: aac (LC), 48000 Hz, stereo, fltp (default)
      Metadata:
        ENCODER         : Lavc61.19.100 aac
        BPS             : 196282
        DURATION        : 00:01:32.075000000
        NUMBER_OF_FRAMES: 4317
        NUMBER_OF_BYTES : 2259087
        _STATISTICS_WRITING_APP: mkvpropedit v66.0.0 ('Josie') 64-bit
        _STATISTICS_WRITING_DATE_UTC: 2025-06-27 08:25:21
        _STATISTICS_TAGS: BPS DURATION NUMBER_OF_FRAMES NUMBER_OF_BYTES
Input #1, matroska,webm, from 'G:\Аниме\[Топ]\Повелитель\ТВ-2\Special\[Ohys-Raws] Overlord II - SP08 (BDRip-720p).mkv':
  Metadata:
    encoder         : libebml v1.2.3 + libmatroska v1.3.0
    creation_time   : 2018-08-21T12:07:38.000000Z
  Duration: 00:01:32.09, start: 0.000000, bitrate: 1110 kb/s
  Stream #1:0(jpn): Video: h264 (Main), yuv420p(progressive), 1280x720 [SAR 1:1 DAR 16:9], 23.98 fps, 23.98 tbr, 1k tbn (default)
  Stream #1:1(jpn): Audio: aac (LC), 48000 Hz, stereo, fltp (default)
Stream mapping:
  Stream #0:0 (hevc) -> settb:default
  Stream #1:0 (h264) -> settb:default
  ssim:default -> Stream #0:0 (wrapped_avframe)
  Stream #0:1 -> #0:1 (aac (native) -> pcm_s16le (native))
[swscaler @ 000001750ed41240] No accelerated colorspace conversion found from yuv420p to bgr48le.
[swscaler @ 000001750edba840] No accelerated colorspace conversion found from yuv420p to bgr48le.
[swscaler @ 000001750ee2dfc0] No accelerated colorspace conversion found from yuv420p to bgr48le.
[swscaler @ 000001750eeba800] No accelerated colorspace conversion found from yuv420p to bgr48le.
[swscaler @ 000001750ef5ba40] No accelerated colorspace conversion found from yuv420p to bgr48le.
[swscaler @ 000001750f0e8dc0] No accelerated colorspace conversion found from yuv420p to bgr48le.
[swscaler @ 000001750f237f00] No accelerated colorspace conversion found from yuv420p to bgr48le.
[swscaler @ 000001750f388040] No accelerated colorspace conversion found from yuv420p to bgr48le.
[swscaler @ 000001750f45db40] No accelerated colorspace conversion found from yuv420p to bgr48le.
[swscaler @ 000001750f688ac0] No accelerated colorspace conversion found from yuv420p to bgr48le.
[swscaler @ 000001750f721b40] No accelerated colorspace conversion found from yuv420p to bgr48le.
[swscaler @ 000001750f8357c0] No accelerated colorspace conversion found from yuv420p to bgr48le.
[swscaler @ 000001750f8a7040] No accelerated colorspace conversion found from yuv420p to bgr48le.
[swscaler @ 000001750f941040] No accelerated colorspace conversion found from yuv420p to bgr48le.
[swscaler @ 000001750f99e040] No accelerated colorspace conversion found from yuv420p to bgr48le.
[swscaler @ 000001750f9c0d40] No accelerated colorspace conversion found from yuv420p to bgr48le.
Output #0, null, to 'pipe:':
  Metadata:
    encoder         : Lavf61.7.100
  Stream #0:0: Video: wrapped_avframe, yuv420p10le(tv, bt709, progressive), 1280x720 [SAR 1:1 DAR 16:9], q=2-31, 200 kb/s, 23.98 fps, 23.98 tbn
      Metadata:
        encoder         : Lavc61.19.100 wrapped_avframe
  Stream #0:1(jpn): Audio: pcm_s16le, 48000 Hz, stereo, s16, 1536 kb/s (default)
      Metadata:
        _STATISTICS_TAGS: BPS DURATION NUMBER_OF_FRAMES NUMBER_OF_BYTES
        BPS             : 196282
        DURATION        : 00:01:32.075000000
        NUMBER_OF_FRAMES: 4317
        NUMBER_OF_BYTES : 2259087
        _STATISTICS_WRITING_APP: mkvpropedit v66.0.0 ('Josie') 64-bit
        _STATISTICS_WRITING_DATE_UTC: 2025-06-27 08:25:21
        encoder         : Lavc61.19.100 pcm_s16le
frame=   73 fps=0.0 q=-0.0 size=N/A time=00:00:03.04 bitrate=N/A speed=5.93x    frame=  159 fps=156 q=-0.0 size=N/A time=00:00:06.63 bitrate=N/A speed= 6.5x    frame=  241 fps=156 q=-0.0 size=N/A time=00:00:10.05 bitrate=N/A speed=6.51x    frame=  333 fps=162 q=-0.0 size=N/A time=00:00:13.88 bitrate=N/A speed=6.76x    frame=  422 fps=164 q=-0.0 size=N/A time=00:00:17.60 bitrate=N/A speed=6.83x    frame=  502 fps=163 q=-0.0 size=N/A time=00:00:20.93 bitrate=N/A speed=6.79x    frame=  593 fps=164 q=-0.0 size=N/A time=00:00:24.73 bitrate=N/A speed=6.86x    frame=  683 fps=166 q=-0.0 size=N/A time=00:00:28.48 bitrate=N/A speed=6.93x    frame=  775 fps=167 q=-0.0 size=N/A time=00:00:32.32 bitrate=N/A speed=6.97x    frame=  861 fps=167 q=-0.0 size=N/A time=00:00:35.91 bitrate=N/A speed=6.98x    frame=  948 fps=167 q=-0.0 size=N/A time=00:00:39.53 bitrate=N/A speed=6.97x    frame= 1034 fps=167 q=-0.0 size=N/A time=00:00:43.12 bitrate=N/A speed=6.98x    frame= 1128 fps=168 q=-0.0 size=N/A time=00:00:47.04 bitrate=N/A speed=7.02x    frame= 1213 fps=168 q=-0.0 size=N/A time=00:00:50.59 bitrate=N/A speed=7.02x    frame= 1292 fps=167 q=-0.0 size=N/A time=00:00:53.88 bitrate=N/A speed=6.97x    frame= 1383 fps=168 q=-0.0 size=N/A time=00:00:57.68 bitrate=N/A speed=   7x    frame= 1475 fps=168 q=-0.0 size=N/A time=00:01:01.51 bitrate=N/A speed=7.02x    frame= 1559 fps=168 q=-0.0 size=N/A time=00:01:05.02 bitrate=N/A speed=7.01x    frame= 1651 fps=169 q=-0.0 size=N/A time=00:01:08.86 bitrate=N/A speed=7.04x    frame= 1738 fps=169 q=-0.0 size=N/A time=00:01:12.48 bitrate=N/A speed=7.04x    frame= 1828 fps=169 q=-0.0 size=N/A time=00:01:16.24 bitrate=N/A speed=7.04x    frame= 1910 fps=168 q=-0.0 size=N/A time=00:01:19.66 bitrate=N/A speed=7.03x    frame= 2007 fps=169 q=-0.0 size=N/A time=00:01:23.70 bitrate=N/A speed=7.07x    frame= 2098 fps=170 q=-0.0 size=N/A time=00:01:27.50 bitrate=N/A speed=7.07x    frame= 2184 fps=170 q=-0.0 size=N/A time=00:01:31.09 bitrate=N/A speed=7.07x    [Parsed_ssim_10 @ 000001750e652580] SSIM Y:0.990474 (20.210776) U:0.990073 (20.032015) V:0.989637 (19.845193) All:0.990268 (20.117795)
[out#0/null @ 00000175028a27c0] video:949KiB audio:17268KiB subtitle:0KiB other streams:0KiB global headers:0KiB muxing overhead: unknown
frame= 2208 fps=170 q=-0.0 Lsize=N/A time=00:01:32.09 bitrate=N/A speed=7.08x    
